<?xml version="1.0" encoding="UTF-8" standalone="no"?>
<svg width="90px" height="69px" viewBox="0 0 90 69" version="1.1" xmlns="http://www.w3.org/2000/svg" xmlns:xlink="http://www.w3.org/1999/xlink" xmlns:sketch="http://www.bohemiancoding.com/sketch/ns">
    <!-- Generator: Sketch 3.4.4 (17249) - http://www.bohemiancoding.com/sketch -->
    <title>Page 1</title>
    <desc>Created with Sketch.</desc>
    <defs>
        <path id="path-1" d="M0,0.0099633353 L89.3346154,0.0099633353 L89.3346154,68.2105263 L0,68.2105263"></path>
        <path id="path-3" d="M0,0.0099633353 L89.3346154,0.0099633353 L89.3346154,68.2105263 L0,68.2105263 L0,0.0099633353 Z"></path>
        <path id="path-5" d="M0,0.0099633353 L89.3346154,0.0099633353 L89.3346154,68.2105263 L0,68.2105263"></path>
    </defs>
    <g id="Homepage" stroke="none" stroke-width="1" fill="none" fill-rule="evenodd" sketch:type="MSPage">
        <g sketch:type="MSArtboardGroup" transform="translate(-676.000000, -921.000000)" id="DONATE-+-Rectangle-3-Copy-+-Line-Copy-Copy-Copy-Copy-Copy-Copy-Copy-Copy-Copy-+-Page-1-+-Edible-Schoolyard-NY">
            <g sketch:type="MSLayerGroup" transform="translate(320.000000, 921.000000)">
                <g id="Page-1" transform="translate(356.000000, 0.000000)">
                    <path d="M18.4007692,32.6356712 C18.1915385,30.9518675 25.3438462,30.601618 25.4438462,28.381327 C25.5076923,26.9818616 20.6215385,28.1046529 20.0407692,27.0270798 C19.4615385,25.9502732 21.5,26.2353779 21.5,23.6602389 C21.5,20.3470467 14.4346154,16.1379208 12.0407692,16.3908362 C9.64769231,16.6414524 5.77846154,20.5532111 5.57461538,23.6602389 C5.44923077,25.5892939 8.27692308,25.1156523 7.43153846,26.8669001 C6.60692308,28.5767617 2.66538462,27.7199148 2.62,29.1032856 C2.53461538,31.6048492 9.14846154,29.9432714 8.99230769,31.6906872 C8.83461538,33.4373365 0,30.4514015 0,34.5432667 C0,38.6358983 10.6938462,37.8418971 10.1415385,40.840861 C9.59,43.8390585 6.07923077,41.6402271 5.32153846,43.4481892 C4.14,46.2655139 12.6376923,45.8784766 12.62,49.3173601 C12.6030769,52.7554772 13.1438462,55.7912289 14.7638462,57.8613034 C15.7523077,59.1251141 17.9176923,58.1027226 16.6946154,56.697126 C15.9684615,55.8632714 14.1438462,53.5341502 14.0261538,50.2102283 C12.9715385,42.0019728 16.4176923,33.6917847 13.6176923,25.6107534 C13.5030769,25.2804305 14.0276923,25.1386446 14.1407692,25.4674347 C16.6876923,32.8119456 14.0807692,40.3327309 14.3669231,47.7968019 C15.8776923,44.7234962 22.1269231,47.0978356 22.2661538,43.8352265 C22.3923077,40.879948 18.7661538,43.0665169 18.3838462,40.866919 C17.9984615,38.6665547 26.5530769,39.9525914 27.3323077,35.4192738 C28.1123077,30.8859562 18.61,34.3187085 18.4007692,32.6356712" id="Fill-1" fill="#12C13B" sketch:type="MSShapeGroup"></path>
                    <g id="Group-5">
                        <mask id="mask-2" sketch:name="Clip 4" fill="white">
                            <use xlink:href="#path-1"></use>
                        </mask>
                        <g id="Clip-4"></g>
                        <path d="M37.2236923,30.4119314 L28.3113846,30.4119314 C28.3113846,12.1591011 35.8298462,1.06147842 39.9636923,0.0682105263 C44.2898462,-0.969509166 51.6183077,11.9153826 51.6183077,30.4119314 L42.4790769,30.4119314" id="Fill-3" fill="#EF6D22" sketch:type="MSShapeGroup" mask="url(#mask-2)"></path>
                    </g>
                    <g id="Group-8">
                        <mask id="mask-4" sketch:name="Clip 7" fill="white">
                            <use xlink:href="#path-3"></use>
                        </mask>
                        <g id="Clip-7"></g>
                        <path d="M43.7831538,35.3390306 C41.7762308,34.2905812 42.3762308,32.923305 42.3608462,30.7183423 C42.3423846,27.8282086 42.2654615,24.938075 42.0285385,22.054839 C41.8985385,20.4760336 41.8762308,16.9175901 39.8646923,16.4309195 C39.8523846,16.4270874 39.8431538,16.4316859 39.8323846,16.4286202 C39.7985385,16.4217225 39.7616154,16.4255546 39.7254615,16.4240218 C39.6885385,16.4255546 39.6523846,16.4217225 39.6193077,16.4286202 C39.607,16.4316859 39.5993077,16.4270874 39.587,16.4309195 C37.8362308,16.8547444 37.6739231,19.6774339 37.5262308,21.066936 C37.2339231,23.8221814 37.1516154,26.5820253 37.1046923,29.3510661 C37.0800769,30.7375025 37.0800769,32.1247054 37.0754615,33.5103754 C37.0716154,34.9228698 36.7923846,34.7511938 35.6677692,35.3390306 C35.5054615,35.4233358 35.4085385,35.6126391 35.4085385,35.7904464 L35.4085385,58.4807929 C35.4085385,61.8062477 34.9162308,68.1720525 39.7254615,68.210373 C44.1108462,68.2448615 44.0423846,62.5243742 44.0423846,59.4518349 L44.0423846,35.7904464 C44.0423846,35.6126391 43.9446923,35.4233358 43.7831538,35.3390306 L43.7831538,35.3390306 Z M43.2631538,59.8128142 C43.2385385,59.8427042 43.2162308,59.8779591 43.2062308,59.9293086 C43.0700769,60.6573985 40.2416154,60.6911205 39.7500769,60.71258 C39.0916154,60.7417036 36.5039231,60.8191111 36.1916154,59.8779591 C36.1523846,58.830276 36.1585385,57.7603671 36.1877692,56.7280123 C37.2200769,57.3411406 39.5200769,57.2836598 40.2108462,57.2867255 C40.9800769,57.2928568 42.4762308,57.2453393 43.2585385,56.6689987 C43.2900769,57.6967551 43.3023846,58.7651312 43.2631538,59.8128142 L43.2631538,59.8128142 Z M42.9954615,48.3250886 C42.2793077,48.9389833 40.2254615,48.8638751 39.6523846,48.8493133 C39.2423846,48.8385836 37.1885385,48.8025623 36.4554615,48.3634091 L36.4554615,44.9889041 C37.2785385,45.382839 38.5162308,45.412729 39.1900769,45.4249916 C39.8308462,45.4349549 41.8846923,45.4717426 42.9954615,44.9774079 L42.9954615,48.3250886 Z M43.2293077,55.8658006 C43.0062308,56.8751631 40.3216154,56.7747633 39.6523846,56.7579023 C39.1739231,56.7464062 36.4508462,56.6981223 36.2116154,56.0167834 C36.2577692,54.8572045 36.3239231,53.775033 36.3754615,52.8607054 C37.1946923,53.2944937 38.4946923,53.3228509 39.1900769,53.334347 C39.8454615,53.3450768 41.9723846,53.3826309 43.0646923,52.8522749 C43.1131538,53.7213843 43.1793077,54.7560383 43.2293077,55.8658006 L43.2293077,55.8658006 Z M43.0331538,52.2675037 C42.387,52.7587728 40.1785385,52.7825315 39.7500769,52.803991 C39.1739231,52.830049 37.1254615,52.8913618 36.4077692,52.2797663 C36.4362308,51.7540088 36.4554615,51.3010602 36.4554615,50.9569419 L36.4554615,48.9535451 C37.5731538,49.4241211 39.5754615,49.3766037 40.2108462,49.3789029 C40.9000769,49.3819685 42.1754615,49.3444144 42.9954615,48.9205895 L42.9954615,51.1339827 C42.9954615,51.4390141 43.0108462,51.8237521 43.0331538,52.2675037 L43.0331538,52.2675037 Z M42.9954615,44.3811406 C42.3093077,44.8471182 40.1716154,44.8747089 39.7500769,44.8938692 C39.187,44.9191607 37.2108462,44.9789407 36.4554615,44.4071986 L36.4554615,41.7676811 L36.4554615,41.0441897 C37.5731538,41.5139993 39.5754615,41.4672483 40.2108462,41.4703139 C40.9000769,41.4733795 42.1754615,41.4365918 42.9954615,41.0120005 L42.9954615,44.3811406 Z M42.9954615,40.4157332 C42.2793077,41.0296279 40.2254615,40.9552861 39.6523846,40.9407243 C39.2423846,40.9299946 37.1885385,40.8932069 36.4554615,40.4563529 L36.4554615,37.6229336 C36.4554615,37.4213677 36.4577692,37.2466261 36.4608462,37.0918112 C37.5816154,37.560088 39.5762308,37.5125705 40.2108462,37.5156362 C40.9000769,37.5202347 42.1754615,37.4811477 42.9954615,37.0565564 L42.9954615,40.4157332 Z M36.2339231,60.6842228 C37.037,61.196185 38.4508462,61.229907 39.1900769,61.242936 C39.8777692,61.2528993 42.1916154,61.2942855 43.2208462,60.6757923 C43.1377692,61.9817556 42.9646923,63.2210413 42.6508462,64.2610602 C41.9093077,64.7301034 40.3162308,64.686418 39.7908462,64.6795203 C39.4008462,64.6726226 37.6008462,64.6404334 36.7939231,64.2648923 C36.4885385,63.2264062 36.3177692,61.9901862 36.2339231,60.6842228 L36.2339231,60.6842228 Z M37.8623846,35.369687 C38.0239231,35.2861483 38.1223846,35.0968449 38.1223846,34.9198041 C38.1239231,31.7652589 38.1416154,28.6130129 38.2531538,25.4607669 C38.3000769,24.1103517 38.0377692,18.2258526 39.7277692,17.500062 C41.2362308,18.1683719 41.0685385,23.1216823 41.1416154,24.2613346 C41.3646923,27.8052163 41.3262308,31.3705575 41.3285385,34.9198041 C41.3285385,35.0968449 41.4262308,35.2861483 41.5877692,35.369687 C42.2739231,35.7276007 42.867,35.7904464 42.9739231,36.4794493 C42.2393077,37.0734174 40.2216154,36.9990756 39.6523846,36.9852802 C39.2531538,36.9760833 37.3062308,36.9423612 36.5193077,36.542295 C36.6316154,36.0065741 36.9485385,35.8471607 37.8623846,35.369687 L37.8623846,35.369687 Z M39.7254615,67.1665221 C38.3931538,67.188748 37.5423846,66.2843837 37.0046923,64.8879839 C38.0431538,65.1960809 39.5146923,65.1815191 40.0477692,65.1891832 C40.6493077,65.1991465 41.6531538,65.1715558 42.4316154,64.8933488 C41.8931538,66.2521944 41.0439231,67.1450626 39.7254615,67.1665221 L39.7254615,67.1665221 Z" id="Fill-6" fill="#000000" sketch:type="MSShapeGroup" mask="url(#mask-4)"></path>
                    </g>
                    <path d="M78.7646154,35.7690635 C80.9976923,35.3659316 83.6892308,35.5107832 84.0407692,37.8107808 C84.1476923,38.5036158 84.2007692,39.2140783 84.2176923,39.930672 C83.1846154,38.9803231 80.9015385,39.4371037 79.7053846,39.6578299 C79.4938462,39.6946176 79.5876923,40.0441008 79.7953846,40.0050138 C80.9669231,39.7904189 83.5092308,39.2110127 84.2215385,40.5146768 C84.2115385,42.4437318 83.96,44.4080416 83.7576923,46.2673533 C83.5869231,47.839261 83.3938462,49.4104024 83.1792308,50.9784781 C82.2861538,50.3155331 80.2661538,50.5945064 79.5938462,51.0505206 C79.4130769,51.1739127 79.5815385,51.4858418 79.7646154,51.3601504 C80.3069231,50.9938063 82.5092308,50.662717 83.1215385,51.3923397 C82.9692308,52.4875402 82.8046154,53.5789086 82.6261538,54.6679778 C82.0753846,54.3959021 81.1407692,54.5760085 80.5676923,54.5890375 C80.3538462,54.5959352 80.3553846,54.9569145 80.57,54.952316 C81.0623077,54.9385206 82.1469231,54.6526496 82.5630769,55.0427525 C82.4284615,55.8490162 82.2861538,56.6529807 82.1361538,57.4538796 C81.9269231,58.575138 81.8007692,61.3050919 80.9076923,62.2324485 C80.88,62.2784331 80.8438462,62.3213521 80.7830769,62.3520085 C80.7246154,62.3979931 80.6638462,62.4125549 80.6076923,62.4117885 C78.5076923,62.8662699 77.0184615,51.8016028 76.8369231,50.6588849 C76.6,49.1636182 76.3730769,47.6583882 76.1815385,46.1477933 C76.9223077,45.4334988 78.8992308,45.333099 79.5407692,45.4043752 C79.7538462,45.4289003 79.7492308,45.0656218 79.5376923,45.041863 C78.7884615,44.9606235 77.0369231,45.0648554 76.1330769,45.7469606 C75.92,44.0049098 75.7576923,42.2590268 75.6907692,40.5100783 C75.5876923,37.8429701 75.9938462,36.3400393 78.4476923,35.8303763" id="Fill-9" fill="#FDBB1A" sketch:type="MSShapeGroup"></path>
                    <g id="Group-13">
                        <mask id="mask-6" sketch:name="Clip 12" fill="white">
                            <use xlink:href="#path-5"></use>
                        </mask>
                        <g id="Clip-12"></g>
                        <path d="M78.9373077,37.2781256 C78.9326923,37.5203113 78.5573077,37.5233769 78.5611538,37.2804248 C78.6357692,33.493591 79.9096154,27.7156229 76.7057692,24.8760724 C75.4942308,23.8007986 74.1303846,23.2873036 72.7103846,22.5814396 C72.105,22.2794739 71.2980769,21.8947359 71.5511538,21.2034337 C71.8311538,20.4393225 73.4111538,20.9137306 73.7380769,21.0225609 C74.7780769,21.3651463 77.6526923,22.4726093 77.6265385,19.8093332 C77.6265385,19.3678808 77.6180769,18.9264284 77.5996154,18.4872752 C77.5926923,17.3736809 77.6826923,16.4424923 78.0065385,15.3725833 C78.6057692,13.3914124 81.7988462,10.7342675 82.8219231,13.8244343 C83.0926923,14.6444934 82.8588462,15.9251652 82.6080769,16.7138015 C82.5280769,16.966717 80.8226923,21.0624142 83.0234615,20.1634148 C84.7103846,19.4751782 86.0896154,18.1891416 88.0542308,18.5754124 C91.5065385,19.2552185 87.0073077,21.8372551 85.8957692,22.4250919 C84.7842308,23.0144615 83.625,23.5685762 82.5819231,24.2767394 C82.1757692,24.5319541 81.7965385,24.8239565 81.4457692,25.153513 C81.1226923,25.9889003 81.6219231,26.9361836 82.475,26.6112255 C82.8442308,26.4579435 83.2157692,26.3123255 83.5926923,26.1774373 C83.9988462,26.0486803 86.0965385,25.3765384 86.2696154,26.4311191 C86.4511538,27.5324509 85.3965385,27.7485786 84.4342308,27.9991948 C83.5488462,28.2275851 81.2365385,28.4199541 80.9826923,29.4538418 C80.6719231,30.7130541 80.4365385,32.3309464 81.145,33.50662 C81.2703846,33.7143172 80.9457692,33.9051534 80.8211538,33.6982226 C80.1657692,32.6099198 80.1980769,31.0663692 80.4942308,29.8615721 C80.8419231,28.4483113 81.5019231,28.2720369 82.9026923,27.9777353 C83.3803846,27.878102 83.8634615,27.7769358 84.3319231,27.6382155 C85.6596154,27.2151569 85.1811538,26.0701398 84.3896154,26.3199896 C83.6334615,26.5568104 82.7234615,27.1024946 81.9373077,27.1791357 C81.335,27.2381493 80.5180769,27.1753036 80.5126923,26.3353178 C80.4965385,23.622225 85.9219231,22.1859719 87.6826923,20.9834739 C89.1611538,19.9764106 87.4611538,18.4803775 86.0388462,19.0743456 C85.4365385,19.3287938 84.8580769,19.6261611 84.3034615,19.9679801 C83.7603846,20.2599825 83.1742308,20.6255603 82.5334615,20.6293923 C82.105,20.6316915 81.2296154,20.5719115 81.3488462,19.8729452 C81.6426923,18.13396 84.0857692,11.4048766 80.6088462,12.8533923 C77.1419231,14.2957767 78.525,18.1669157 77.8373077,20.888439 C77.615,21.7636797 76.2703846,22.0027998 75.5419231,21.8786413 C74.8773077,21.7659789 74.2873077,21.5567489 73.6396154,21.385073 C72.5742308,21.1244934 72.1480769,21.8602474 72.7926923,22.2127962 C73.0996154,22.3883042 73.1119231,22.3538157 73.435,22.4948352 C75.8373077,23.5371534 78.2626923,25.0607773 78.8573077,27.8152563 C79.5157692,30.8617377 78.9988462,34.1871924 78.9373077,37.2781256" id="Fill-11" fill="#231F1F" sketch:type="MSShapeGroup" mask="url(#mask-6)"></path>
                    </g>
                    <path d="M65.6653846,9.51130645 C65.6638462,9.42240284 65.6361538,9.3534259 65.5969231,9.29134666 C65.3984615,8.75409296 64.6692308,8.83150041 64.59,9.51130645 L64.5723077,9.51130645 C64.6638462,14.0898422 64.7538462,18.6660788 64.8469231,23.245381 C64.8584615,23.8109918 63.9776923,23.8102254 63.9669231,23.245381 C63.8746154,18.6660788 63.7830769,14.0898422 63.6930769,9.51130645 L63.68,9.51130645 C63.6346154,8.66212371 62.7184615,8.6613573 62.7153846,9.51130645 L62.7053846,9.51130645 L62.7053846,23.245381 C62.7053846,23.8109918 61.8246154,23.8109918 61.8246154,23.245381 L61.8246154,9.51130645 L61.8084615,9.51130645 C61.7953846,8.6613573 60.7892308,8.6613573 60.7461538,9.51130645 C60.6861538,14.0898422 60.6238462,18.6660788 60.5638462,23.245381 C60.5561538,23.8102254 59.6769231,23.8109918 59.6846154,23.245381 C59.7446154,18.6660788 59.8069231,14.0898422 59.8669231,9.51130645 L59.8638462,9.51130645 C59.8507692,8.74259681 58.9492308,8.66902141 58.7415385,9.29287948 C58.7046154,9.35419231 58.6761538,9.42393566 58.6746154,9.51130645 C58.5430769,15.5544525 57.9646154,21.6129268 57.5830769,27.6453431 C57.5692308,27.8476755 57.7276923,28.005556 57.9046154,28.0684017 C66.3476923,31.0075856 53.4207692,67.4618966 62.7007692,66.5069493 C67.1223077,66.0517015 64.8823077,55.8967636 64.6769231,53.4105282 C64.3338462,49.284941 64.0038462,45.1570545 63.7815385,41.0230368 C63.5976923,37.5803212 62.28,29.5123189 66.4361538,28.0684017 C66.6130769,28.0063224 66.7730769,27.8476755 66.7584615,27.6453431 C66.3684615,21.615226 65.7715385,15.5536861 65.6653846,9.51130645" id="Fill-14" fill="#B64B9B" sketch:type="MSShapeGroup"></path>
                </g>
            </g>
        </g>
    </g>
</svg>