<?xml version="1.0" encoding="UTF-8" standalone="no"?>
<svg width="118px" height="84px" viewBox="0 0 118 84" version="1.1" xmlns="http://www.w3.org/2000/svg" xmlns:xlink="http://www.w3.org/1999/xlink" xmlns:sketch="http://www.bohemiancoding.com/sketch/ns">
    <!-- Generator: Sketch 3.4.3 (16044) - http://www.bohemiancoding.com/sketch -->
    <title>Page 1</title>
    <desc>Created with Sketch.</desc>
    <defs>
        <path id="path-1" d="M0,0.348165517 L117.472471,0.348165517 L117.472471,84 L0,84 L0,0.348165517 Z"></path>
    </defs>
    <g id="Style-Guide" stroke="none" stroke-width="1" fill="none" fill-rule="evenodd" sketch:type="MSPage">
        <g sketch:type="MSArtboardGroup" transform="translate(-780.000000, -3857.000000)" id="Group">
            <g sketch:type="MSLayerGroup" transform="translate(119.000000, 3844.000000)">
                <g id="Page-1">
                    <g transform="translate(661.000000, 13.000000)">
                        <mask id="mask-2" sketch:name="Clip 2" fill="white">
                            <use xlink:href="#path-1"></use>
                        </mask>
                        <g id="Clip-2"></g>
                        <path d="M70.5576373,67.9953931 L66.9580588,67.9953931 L66.9580588,60.9967448 L65.1036078,60.9967448 L65.1036078,69.6504828 L70.5576373,69.6504828 L70.5576373,67.9953931 Z M31.4417941,51.7306759 L34.6532451,51.7306759 L34.6532451,50.1109241 L31.4417941,50.1109241 L31.4417941,48.3561931 L34.8759412,48.3561931 L34.8759412,46.7358621 L29.580402,46.7358621 L29.580402,55.3896 L34.9736961,55.3896 L34.9736961,53.7072828 L31.4417941,53.7072828 L31.4417941,51.7306759 Z M59.7745196,77.037269 L58.9207549,78.7572414 L58.8600196,78.7572414 L58.0450098,77.1004138 L56.9720196,75.2593655 L54.983951,75.2593655 L54.983951,75.5287448 L57.9576667,80.4517241 L57.9576667,83.9125241 L59.8086471,83.9125241 L59.8086471,80.4517241 L62.771951,75.5287448 L62.771951,75.2593655 L60.8087549,75.2593655 L59.7745196,77.037269 Z M48.4066078,80.1678621 L43.5570392,75.2199724 L42.9757157,75.2199724 L42.9757157,83.9125241 L44.8157059,83.9125241 L44.8157059,78.9657931 L49.7028725,83.9380138 L50.2610588,83.9380138 L50.2610588,75.2593655 L48.4066078,75.2593655 L48.4066078,80.1678621 Z M55.4779314,68.1025655 C56.8239412,68.1025655 58.0450098,67.2133241 58.0450098,65.3230345 C58.0450098,63.4819862 56.8360882,62.5678345 55.4883431,62.5678345 C54.1313431,62.5678345 52.9247353,63.496469 52.9247353,65.3230345 C52.9247353,67.2133241 54.0960588,68.1025655 55.4779314,68.1025655 L55.4779314,68.1025655 Z M55.4530588,69.7987862 C53.1439608,69.7987862 51.0598725,68.2398621 51.0598725,65.3230345 C51.0598725,62.4085241 53.1937059,60.8623448 55.4883431,60.8623448 C57.7488529,60.8623448 59.8832647,62.4177931 59.8832647,65.3230345 C59.8832647,67.9583172 58.0698824,69.7987862 55.4530588,69.7987862 L55.4530588,69.7987862 Z M71.0423627,82.3182621 C69.4985294,82.3182621 68.4984216,81.0825931 68.4984216,79.5960828 C68.4984216,77.9537379 69.523402,76.8414621 71.0516176,76.8414621 C72.0910588,76.8414621 72.8667353,77.2736276 73.2519706,78.2520828 L75.039902,78.2520828 C74.6459902,76.1126897 72.7955882,75.1718897 71.0516176,75.1718897 C68.7835882,75.1342345 66.6335588,76.718069 66.6335588,79.5960828 C66.6335588,82.4659862 68.7835882,84 71.0516176,84 C72.8557451,84 74.6957353,83.0458759 75.0630392,80.7604966 L73.2872549,80.7604966 C72.9934118,81.8107862 72.1159314,82.3182621 71.0423627,82.3182621 L71.0423627,82.3182621 Z M99.6226569,65.2639448 L101.473637,65.2639448 C102.252784,65.2639448 102.758912,64.6568276 102.746765,63.9141517 C102.746765,63.1853793 102.263196,62.6031724 101.473637,62.6031724 L99.6226569,62.6031724 L99.6226569,65.2639448 Z M104.634765,68.4327724 L104.634765,69.6916138 C102.734039,70.0878621 101.980343,69.2467034 101.682451,68.1744 C101.541314,67.5811862 101.422157,67.1096276 101.249206,66.7742069 L101.193676,66.7823172 L99.6498431,66.7823172 L99.6498431,69.6383172 L97.7971275,69.6383172 L97.7971275,60.9857379 C99.0315,60.9857379 100.254304,60.974731 101.488098,60.9857379 C103.463441,60.9857379 104.538745,62.4177931 104.538745,63.9518069 C104.538745,65.0461241 103.991549,66.0008276 103.015735,66.485131 C103.155137,66.8275034 103.277765,67.2057931 103.388824,67.629269 C103.573922,68.284469 103.942961,68.4953379 104.634765,68.4327724 L104.634765,68.4327724 Z M115.631902,65.3126069 C115.631902,63.9268966 114.779873,62.6784828 113.212324,62.6784828 L111.868049,62.6784828 L111.868049,67.9832276 L113.212324,67.9832276 C114.804745,67.9832276 115.631902,66.6954207 115.631902,65.3126069 L115.631902,65.3126069 Z M117.471892,65.3004414 C117.507755,67.5093517 116.027549,69.6504828 113.238931,69.6504828 L110.029794,69.6504828 L110.029794,61.0089103 L113.238931,61.0089103 C115.990529,61.0089103 117.471892,63.0996414 117.471892,65.3004414 L117.471892,65.3004414 Z M78.4202549,62.7781241 L77.5716961,64.4946207 L77.5092255,64.4946207 L76.6947941,62.839531 L75.6177549,60.9967448 L73.6331569,60.9967448 L73.6331569,61.2713379 L76.6068725,66.1862069 L76.6068725,69.6504828 L78.4578529,69.6504828 L78.4578529,66.1862069 L81.4211569,61.2713379 L81.4211569,60.9967448 L79.4602745,60.9967448 L78.4202549,62.7781241 Z M88.9806765,53.7072828 L85.4505098,53.7072828 L85.4505098,51.7306759 L88.6596471,51.7306759 L88.6596471,50.1109241 L85.4505098,50.1109241 L85.4505098,48.3561931 L88.8829216,48.3561931 L88.8829216,46.7358621 L83.5856471,46.7358621 L83.5856471,55.3896 L88.9806765,55.3896 L88.9806765,53.7072828 Z M89.9593824,66.6595034 L88.761451,63.8035034 L87.5669902,66.6595034 L89.9593824,66.6595034 Z M89.1946961,60.9214345 L93.1436471,69.4042759 L93.1436471,69.6504828 L91.2325098,69.6504828 L90.5534314,68.2166897 L86.9625294,68.2166897 L86.2973333,69.6504828 L84.37,69.6504828 L84.37,69.4042759 L88.3420882,60.9214345 L89.1946961,60.9214345 Z M44.4802157,65.3230345 C44.4802157,63.4819862 43.2718725,62.5678345 41.9258627,62.5678345 C40.5688627,62.5678345 39.3599412,63.496469 39.3599412,65.3230345 C39.3599412,67.2133241 40.5312647,68.1025655 41.9131373,68.1025655 C43.2591471,68.1025655 44.4802157,67.2133241 44.4802157,65.3230345 L44.4802157,65.3230345 Z M41.89,69.7987862 C39.580902,69.7987862 37.4968137,68.2398621 37.4968137,65.3230345 C37.4968137,62.4085241 39.6312255,60.8623448 41.9258627,60.8623448 C44.1863725,60.8623448 46.3225196,62.4177931 46.3225196,65.3230345 C46.3225196,67.9583172 44.507402,69.7987862 41.89,69.7987862 L41.89,69.7987862 Z M44.3037941,53.7217655 C45.897951,53.7217655 46.7251078,52.4362759 46.7251078,51.0505655 C46.7251078,49.6648552 45.8730784,48.4181793 44.3037941,48.4181793 L42.9595196,48.4181793 L42.9595196,53.7217655 L44.3037941,53.7217655 Z M44.3292451,55.3896 L41.1195294,55.3896 L41.1195294,46.7486069 L44.3292451,46.7486069 C47.082,46.7486069 48.5633627,48.8381793 48.5633627,51.0378207 C48.5992255,53.2502069 47.1190196,55.3896 44.3292451,55.3896 L44.3292451,55.3896 Z M66.1713922,52.8290483 C66.1858529,52.4826207 66.0505,52.1628414 65.7884706,51.9774621 C65.5796569,51.8274207 65.3320882,51.8059862 65.0521275,51.8059862 L63.0854608,51.8059862 L63.0854608,53.7808552 L65.136,53.7808552 C65.7653333,53.7808552 66.1361078,53.4112552 66.1713922,52.8290483 L66.1713922,52.8290483 Z M63.0854608,50.2951448 L64.7791078,50.2951448 C65.4084412,50.2951448 65.8023529,49.9469793 65.8150784,49.3699862 C65.8260686,48.7362207 65.4176961,48.3307034 64.7791078,48.3307034 L63.0854608,48.3307034 L63.0854608,50.2951448 Z M66.7654412,50.9005241 C67.5659902,51.2376828 67.9992353,51.938069 67.9992353,52.8290483 C67.9992353,54.3503172 66.986402,55.3896 65.2586275,55.3896 L61.2489412,55.3896 L61.2489412,46.7486069 L64.9150392,46.7486069 C66.4947353,46.7486069 67.6284608,47.6899862 67.6284608,49.3056828 C67.6284608,49.9382897 67.3091667,50.5668414 66.7654412,50.9005241 L66.7654412,50.9005241 Z M53.6217451,53.9198897 L53.6217451,55.3896 L55.4738824,55.3896 L55.4738824,53.9198897 L55.4738824,48.1702345 L55.4738824,46.7358621 L53.6217451,46.7358621 L53.6217451,48.1702345 L53.6217451,53.9198897 Z M78.6880686,53.7304552 L75.0827059,53.7304552 L75.0827059,46.7358621 L73.2323039,46.7358621 L73.2323039,55.3896 L78.6880686,55.3896 L78.6880686,53.7304552 Z M30.4260686,64.2976552 L27.1162843,64.2976552 L27.1162843,60.9967448 L25.2803431,60.9967448 L25.2803431,69.6504828 L27.1162843,69.6504828 L27.1162843,65.9898207 L30.4260686,65.9898207 L30.4260686,69.6504828 L32.2747353,69.6504828 L32.2747353,60.9967448 L30.4260686,60.9967448 L30.4260686,64.2976552 Z M57.8344608,22.4274207 C58.0791373,23.1532966 58.1537549,25.1658207 58.1751569,26.5828138 C58.1768922,26.7114207 58.1537549,30.8291586 58.1323529,30.8801379 C58.1057451,30.9409655 58.0149314,30.9450207 57.9611373,30.9629793 C57.8095882,31.0156966 57.6632451,31.0788414 57.5244216,31.1599448 C57.2479314,31.3180966 57.0038333,31.5283862 56.8025392,31.7774897 C56.602402,32.0231172 56.4514314,32.3168276 56.3565686,32.6227034 C56.2836863,32.8590621 56.2495588,33.1070069 56.2495588,33.3561103 C56.2495588,34.7563034 57.3821275,35.8911724 58.7778824,35.8911724 C60.1776863,35.8911724 61.3079412,34.7563034 61.3079412,33.3561103 C61.3079412,33.1579862 61.2865392,32.9604414 61.2402647,32.7698483 C61.1685392,32.4581793 61.0331863,32.164469 60.8532941,31.9032 C60.6716667,31.643669 60.4431863,31.4206345 60.1811569,31.2451034 C60.0492745,31.1599448 59.9081373,31.0840552 59.7617941,31.022069 C59.6889118,30.9913655 59.6125588,30.9647172 59.5373627,30.9409655 C59.5020784,30.9270621 59.4627451,30.9160552 59.4199412,30.9073655 C59.3748235,30.8952 59.3464804,30.8865103 59.3343333,30.8349517 C59.3308627,30.8227862 59.2932647,26.8151172 59.295,26.637269 C59.3094608,24.5175724 59.3806078,20.2202483 59.6374314,19.4532414 C61.1685392,14.8981241 65.9325,13.4672276 68.2363922,9.48273103 C70.3222157,5.8742069 69.9606961,2.82297931 69.5147255,1.24609655 C69.3076471,0.510951724 68.798049,0.119337931 67.8939608,0.490096552 C66.7104902,0.976717241 64.6703627,1.98008276 63.0195196,3.57318621 C60.9585686,5.55442759 59.3968039,9.98673103 58.8669608,13.1851034 C58.8351471,13.382069 58.700951,14.8929103 58.5852647,15.9744828 C58.5123824,16.6824 58.3180294,16.4645793 58.2538235,16.1575448 C57.6296961,13.2302897 56.3155,10.2028138 54.4506373,8.41158621 C52.7980588,6.8208 50.765451,5.8128 49.5796667,5.32617931 C48.6703725,4.95831724 48.1659804,5.34587586 47.9571667,6.0873931 C47.5135098,7.66137931 47.1496765,10.7131862 49.2378137,14.3217103 C51.5393922,18.3062069 56.3033529,17.8769379 57.8344608,22.4274207 L57.8344608,22.4274207 Z M16.107,68.0544828 C14.5631667,68.0544828 13.5665294,66.8188138 13.5665294,65.3352 C13.5665294,63.6922759 14.5915098,62.58 16.1214608,62.58 C17.1574314,62.58 17.9342647,63.0121655 18.3177647,63.9877241 L20.1062745,63.9877241 C19.7123627,61.8518069 17.8613824,60.9121655 16.1214608,60.9121655 C13.8499608,60.8750897 11.7016667,62.4566069 11.7016667,65.3352 C11.7016667,68.2039448 13.8499608,69.7362207 16.1214608,69.7362207 C17.9221176,69.7362207 19.7621078,68.7844138 20.1311471,66.4972966 L18.3553627,66.4972966 C18.0592059,67.5475862 17.1805686,68.0544828 16.107,68.0544828 L16.107,68.0544828 Z M6.98918627,67.1275862 C6.98918627,69.1684966 5.22381373,69.7987862 3.5197549,69.8381793 C1.7885098,69.8381793 0,68.9842759 0,67.0934069 L1.76537255,67.0934069 C1.80239216,67.8847448 2.66714706,68.2166897 3.50702941,68.2166897 C4.27171569,68.2166897 5.15960784,68.030731 5.15960784,67.1275862 C5.15960784,66.1381241 4.1005,66.0523862 3.27334314,65.9898207 C1.70463725,65.856 0.124941176,65.3230345 0.124941176,63.5318069 C0.124941176,61.6177655 1.69191176,60.8142621 3.40927451,60.8142621 C5.0242549,60.8142621 6.70401961,61.4908966 6.70401961,63.4339034 L4.9762451,63.4339034 C4.87617647,62.7265655 4.14908824,62.4316966 3.40927451,62.4316966 C2.66714706,62.4316966 1.93948039,62.8285241 1.93948039,63.496469 C1.93948039,64.2605793 2.69028431,64.4337931 3.59263725,64.5334345 C5.42221569,64.6950621 6.98918627,65.1 6.98918627,67.1275862 L6.98918627,67.1275862 Z" id="Fill-1" fill="#020303" sketch:type="MSShapeGroup" mask="url(#mask-2)"></path>
                    </g>
                </g>
            </g>
        </g>
    </g>
</svg>