<?xml version="1.0" standalone="no"?>
<!DOCTYPE svg PUBLIC "-//W3C//DTD SVG 20010904//EN"
 "http://www.w3.org/TR/2001/REC-SVG-20010904/DTD/svg10.dtd">
<svg version="1.0" xmlns="http://www.w3.org/2000/svg"
 width="1292.000000pt" height="1292.000000pt" viewBox="0 0 1292.000000 1292.000000"
 preserveAspectRatio="xMidYMid meet">
<metadata>
Created by potrace 1.11, written by Peter Selinger 2001-2013
</metadata>
<g transform="translate(0.000000,1292.000000) scale(0.100000,-0.100000)"
fill="#000000" stroke="none">
<path d="M9699 12642 c-30 -10 -73 -28 -95 -39 -21 -12 -105 -49 -185 -83
-166 -70 -444 -207 -598 -296 -56 -32 -112 -64 -123 -70 -268 -154 -638 -442
-843 -655 -220 -230 -458 -613 -646 -1041 -22 -51 -47 -106 -54 -123 -27 -59
-144 -362 -183 -475 -71 -203 -186 -567 -198 -629 -3 -14 -7 -28 -10 -33 -3
-4 -7 -16 -9 -25 -3 -10 -9 -38 -16 -63 -6 -25 -12 -52 -14 -60 -2 -8 -15 -58
-29 -110 -14 -52 -27 -106 -29 -120 -3 -14 -12 -54 -21 -90 -17 -70 -80 -387
-91 -460 -4 -25 -11 -50 -16 -56 -13 -16 -39 -94 -45 -134 -3 -19 -7 -42 -10
-50 -2 -8 -6 -38 -9 -65 -3 -28 -7 -63 -10 -80 -6 -42 -14 -112 -19 -165 -2
-25 -9 -83 -15 -130 -7 -47 -14 -103 -17 -125 -2 -22 -7 -51 -9 -65 -18 -91
-27 -149 -30 -193 -7 -114 -28 -159 -59 -126 -7 8 -25 68 -40 134 -16 66 -36
152 -47 190 -127 468 -229 772 -375 1113 -102 237 -229 491 -311 619 -18 29
-33 57 -33 63 0 5 -4 10 -10 10 -5 0 -10 4 -10 9 0 12 -107 174 -179 271 -380
513 -850 883 -1606 1263 -214 107 -512 241 -589 264 -63 19 -156 18 -217 -2
-115 -38 -198 -182 -213 -370 -15 -185 -18 -212 -21 -245 -24 -207 -24 -794
-1 -930 3 -14 7 -47 10 -75 67 -623 344 -1337 705 -1820 41 -55 91 -118 110
-140 46 -51 230 -234 262 -260 13 -11 49 -40 79 -65 30 -25 57 -48 60 -51 12
-14 246 -174 350 -240 63 -39 250 -149 415 -244 437 -251 536 -313 729 -460
127 -96 310 -269 395 -373 123 -151 237 -344 305 -517 16 -38 32 -79 36 -90
48 -117 79 -264 95 -450 4 -38 8 -86 10 -105 14 -118 19 -521 19 -1480 l1
-1085 -87 -5 -87 -5 -171 -170 c-101 -101 -170 -177 -170 -188 0 -11 -18 -60
-41 -110 l-41 -91 0 -185 c0 -239 8 -311 53 -444 102 -300 341 -509 634 -555
58 -10 237 -8 283 2 200 44 348 122 478 253 55 55 164 200 164 217 0 2 13 34
30 69 28 61 51 141 66 232 12 69 8 318 -5 360 -42 133 -94 208 -272 387 -83
84 -153 152 -155 151 -11 -7 -32 -1 -50 15 -60 54 -76 62 -135 62 -49 0 -59 3
-60 18 0 9 -1 485 -1 1057 0 892 7 1794 17 2095 3 115 16 373 20 435 7 91 16
190 20 215 2 14 7 45 10 70 24 177 200 584 365 845 150 237 331 458 580 705
202 201 337 322 710 635 52 44 106 90 120 101 14 12 63 54 110 94 86 72 163
140 276 240 110 97 408 402 495 506 86 102 98 117 168 214 22 30 44 60 48 65
74 92 243 403 335 616 107 248 210 578 244 779 3 14 7 39 11 55 3 17 8 40 9
53 2 12 6 34 8 50 3 15 8 56 11 92 4 36 9 67 10 71 5 8 18 282 18 384 0 90
-11 317 -18 358 -2 12 -6 49 -10 82 -11 101 -49 325 -69 410 -2 6 -6 28 -10
50 -12 60 -90 215 -131 257 -87 91 -205 120 -326 80z"/>
</g>
</svg>
